<svg width="205" height="212" viewBox="0 0 205 212" fill="none" xmlns="http://www.w3.org/2000/svg">
<path d="M102.5 135C117.688 135 130 122.24 130 106.5C130 90.7599 117.688 78 102.5 78C87.3122 78 75 90.7599 75 106.5C75 122.24 87.3122 135 102.5 135Z" fill="#C83538"/>
<path d="M102.5 135C117.688 135 130 122.24 130 106.5C130 90.7599 117.688 78 102.5 78C87.3122 78 75 90.7599 75 106.5C75 122.24 87.3122 135 102.5 135Z" fill="#C83538"/>
<path d="M153.5 106.5C153.5 135.789 130.649 159.5 102.5 159.5C74.3513 159.5 51.5 135.789 51.5 106.5C51.5 77.2108 74.3513 53.5 102.5 53.5C130.649 53.5 153.5 77.2108 153.5 106.5Z" stroke="#C83538"/>
<path d="M180.5 106C180.5 150.474 145.564 186.5 102.5 186.5C59.4364 186.5 24.5 150.474 24.5 106C24.5 61.5262 59.4364 25.5 102.5 25.5C145.564 25.5 180.5 61.5262 180.5 106Z" stroke="#C83538" stroke-opacity="0.5"/>
<path d="M204.5 106C204.5 164.282 158.817 211.5 102.5 211.5C46.1826 211.5 0.5 164.282 0.5 106C0.5 47.718 46.1826 0.5 102.5 0.5C158.817 0.5 204.5 47.718 204.5 106Z" stroke="#C83538" stroke-opacity="0.2"/>
</svg>
