<svg width="167" height="36" viewBox="0 0 167 36" fill="none" xmlns="http://www.w3.org/2000/svg">
<g clip-path="url(#clip0_529_832)">
<path d="M34.7659 21.721C32.4744 30.9124 23.165 36.5062 13.9725 34.2141C4.78379 31.9226 -0.809988 22.6126 1.48264 13.4218C3.77312 4.22927 13.0825 -1.36504 22.2723 0.926512C31.4643 3.21807 37.0575 12.5291 34.7659 21.721Z" fill="#F7931A"/>
<path d="M25.6895 15.126C26.0311 12.843 24.2928 11.6157 21.916 10.797L22.687 7.70442L20.8046 7.23528L20.0539 10.2464C19.559 10.123 19.0508 10.0067 18.5457 9.89142L19.3017 6.8605L17.4203 6.39136L16.6488 9.48287C16.2391 9.38957 15.837 9.29735 15.4467 9.20031L15.4488 9.19066L12.8527 8.54244L12.352 10.553C12.352 10.553 13.7487 10.8731 13.7192 10.893C14.4816 11.0833 14.6194 11.5878 14.5963 11.9878L13.7181 15.5109C13.7706 15.5243 13.8387 15.5436 13.9138 15.5737C13.8511 15.5581 13.7841 15.541 13.7149 15.5243L12.4839 20.4597C12.3906 20.6913 12.1541 21.0388 11.6212 20.9069C11.6399 20.9342 10.2529 20.5653 10.2529 20.5653L9.31836 22.7202L11.7681 23.3309C12.2238 23.4451 12.6704 23.5646 13.1101 23.6772L12.3311 26.8052L14.2114 27.2743L14.9829 24.1796C15.4966 24.319 15.9952 24.4477 16.4831 24.5688L15.7142 27.6491L17.5967 28.1182L18.3757 24.9962C21.5857 25.6036 23.9995 25.3586 25.0156 22.4553C25.8343 20.1176 24.9748 18.7692 23.2859 17.8899C24.5159 17.6063 25.4424 16.7972 25.6895 15.126ZM21.3884 21.1573C20.8067 23.4949 16.8707 22.2312 15.5947 21.9143L16.6284 17.7703C17.9045 18.0888 21.9964 18.7193 21.3884 21.1573ZM21.9707 15.0922C21.4399 17.2186 18.164 16.1382 17.1013 15.8734L18.0385 12.1149C19.1012 12.3797 22.5235 12.8741 21.9707 15.0922Z" fill="white"/>
<path d="M51.2468 10.7936C52.6381 10.7936 53.8402 11.0429 54.8503 11.5324C55.8652 12.0268 56.7027 12.6927 57.3745 13.5302C58.0372 14.3719 58.5305 15.3558 58.849 16.4833C59.1653 17.6141 59.324 18.8296 59.324 20.1308C59.324 22.1297 58.9578 24.018 58.2185 25.7981C57.4791 27.5808 56.4759 29.1271 55.1999 30.4461C53.9249 31.7634 52.4193 32.802 50.6832 33.5692C48.9498 34.337 47.0652 34.7209 45.0418 34.7209C44.7801 34.7209 44.3201 34.7134 43.6703 34.7C43.0204 34.6866 42.2736 34.6195 41.4371 34.5064C40.5954 34.389 39.7053 34.2153 38.7654 33.9826C37.8261 33.7542 36.9339 33.4341 36.0938 33.0277L43.6064 1.46062L50.3353 0.417786L47.6454 11.6198C48.2212 11.3603 48.8013 11.1593 49.3804 11.0129C49.96 10.8687 50.5819 10.7936 51.2468 10.7936ZM45.6026 29.3829C46.6159 29.3829 47.5708 29.1335 48.4678 28.644C49.3675 28.154 50.1439 27.4923 50.7942 26.6683C51.4446 25.8404 51.9593 24.908 52.3346 23.8663C52.7099 22.8245 52.8997 21.7377 52.8997 20.607C52.8997 19.2178 52.6676 18.1342 52.2049 17.3508C51.7422 16.5707 50.8859 16.1783 49.6426 16.1783C49.2351 16.1783 48.7102 16.256 48.0593 16.3949C47.4062 16.5423 46.8218 16.8485 46.298 17.309L43.4338 29.2054C43.6065 29.2359 43.7593 29.2649 43.8895 29.2922C44.0172 29.3217 44.1582 29.3426 44.2986 29.3571C44.4472 29.3737 44.6171 29.3823 44.8225 29.3823C45.0278 29.3823 45.2846 29.3829 45.6026 29.3829Z" fill="white"/>
<path d="M66.3039 34.1165H59.877L65.3045 11.2777H71.7755L66.3039 34.1165ZM69.4314 8.49498C68.5344 8.49498 67.721 8.22797 66.9993 7.69288C66.2718 7.16101 65.9115 6.34229 65.9115 5.23887C65.9115 4.63193 66.0348 4.06253 66.2793 3.5253C66.5275 2.98914 66.8519 2.5275 67.2583 2.13503C67.6642 1.74578 68.1344 1.4348 68.6684 1.2005C69.2056 0.96995 69.7772 0.854675 70.3863 0.854675C71.2827 0.854675 72.0918 1.12168 72.8161 1.65677C73.5378 2.19454 73.9008 3.01326 73.9008 4.11079C73.9008 4.71987 73.778 5.29141 73.5314 5.82758C73.2864 6.36374 72.962 6.82537 72.5556 7.21784C72.1529 7.60763 71.6784 7.91753 71.1455 8.14969C70.6077 8.384 70.0383 8.49498 69.4314 8.49498Z" fill="white"/>
<path d="M77.4077 5.58788L84.1392 4.54504L82.4863 11.2771H89.6955L88.3937 16.5733H81.2279L79.3192 24.5621C79.1433 25.228 79.0436 25.85 79.0157 26.4279C78.9841 27.0086 79.0575 27.5072 79.2312 27.9271C79.4039 28.3479 79.7143 28.6723 80.1647 28.9018C80.6129 29.135 81.2547 29.2524 82.0965 29.2524C82.7897 29.2524 83.4653 29.1865 84.1183 29.0557C84.7676 28.927 85.4255 28.7479 86.0914 28.5136L86.5707 33.4656C85.7022 33.7841 84.7617 34.0581 83.7484 34.2886C82.7334 34.5224 81.5319 34.635 80.1432 34.635C78.1466 34.635 76.5987 34.3385 75.4958 33.7482C74.3945 33.1536 73.616 32.3413 73.1501 31.3129C72.6906 30.2883 72.4852 29.1071 72.5426 27.7764C72.6021 26.4424 72.8032 25.0404 73.1501 23.5638L77.4077 5.58788Z" fill="white"/>
<path d="M89.4121 24.9964C89.4121 23.0292 89.7306 21.1741 90.367 19.4375C91.0024 17.6992 91.9176 16.1792 93.1052 14.8747C94.2885 13.5767 95.7302 12.5483 97.4272 11.7934C99.1161 11.0428 101.007 10.6642 103.091 10.6642C104.396 10.6642 105.561 10.7876 106.586 11.0347C107.615 11.284 108.547 11.6063 109.389 12.0105L107.172 17.0505C106.593 16.8156 105.992 16.6087 105.371 16.421C104.749 16.2296 103.99 16.1374 103.092 16.1374C100.947 16.1374 99.2507 16.8768 97.9885 18.3507C96.7312 19.8256 96.098 21.8111 96.098 24.3015C96.098 25.7776 96.4165 26.9711 97.0556 27.8842C97.6915 28.7972 98.8662 29.2514 100.572 29.2514C101.414 29.2514 102.226 29.1634 103.004 28.9919C103.788 28.8181 104.48 28.5994 105.089 28.341L105.569 33.5074C104.757 33.8227 103.86 34.1074 102.877 34.3567C101.891 34.5974 100.718 34.7224 99.3579 34.7224C97.5623 34.7224 96.0423 34.4596 94.7989 33.9422C93.555 33.4168 92.5272 32.7193 91.7176 31.8357C90.9037 30.9499 90.3193 29.9157 89.9579 28.7286C89.5965 27.5426 89.4121 26.2966 89.4121 24.9964Z" fill="white"/>
<path d="M117.962 34.7224C116.428 34.7224 115.096 34.4886 113.965 34.0259C112.838 33.5632 111.905 32.9139 111.167 32.0721C110.427 31.2346 109.874 30.2422 109.495 29.0986C109.116 27.9555 108.934 26.6896 108.934 25.3025C108.934 23.5627 109.213 21.8234 109.778 20.0889C110.339 18.3507 111.173 16.7888 112.277 15.4007C113.371 14.0104 114.722 12.8738 116.312 11.9875C117.901 11.1071 119.728 10.6642 121.781 10.6642C123.287 10.6642 124.612 10.8985 125.758 11.3613C126.898 11.8229 127.838 12.4775 128.58 13.315C129.315 14.1568 129.873 15.1449 130.248 16.2902C130.626 17.4311 130.813 18.7002 130.813 20.0884C130.813 21.8228 130.537 23.5622 129.99 25.302C129.443 27.0333 128.631 28.5989 127.558 29.9902C126.488 31.3783 125.15 32.5144 123.542 33.397C121.937 34.2795 120.076 34.7224 117.962 34.7224ZM121.174 16.1379C120.221 16.1379 119.379 16.4146 118.658 16.9609C117.934 17.5137 117.326 18.2086 116.836 19.0466C116.341 19.8884 115.973 20.8063 115.725 21.8041C115.479 22.804 115.358 23.7493 115.358 24.6473C115.358 26.0966 115.592 27.2252 116.052 28.0375C116.518 28.8455 117.355 29.2519 118.571 29.2519C119.527 29.2519 120.365 28.9774 121.091 28.4251C121.81 27.8766 122.419 27.1812 122.912 26.3416C123.405 25.5041 123.775 24.5835 124.023 23.5841C124.266 22.5874 124.39 21.6368 124.39 20.7403C124.39 19.2948 124.157 18.1635 123.694 17.3523C123.23 16.5443 122.39 16.1379 121.174 16.1379Z" fill="white"/>
<path d="M137.817 34.1165H131.385L136.812 11.2777H143.286L137.817 34.1165ZM140.94 8.49498C140.043 8.49498 139.23 8.22797 138.51 7.69288C137.786 7.16101 137.422 6.34229 137.422 5.23887C137.422 4.63193 137.547 4.06253 137.792 3.5253C138.037 2.98914 138.364 2.5275 138.77 2.13503C139.174 1.74578 139.649 1.4348 140.182 1.2005C140.716 0.96995 141.287 0.854675 141.894 0.854675C142.793 0.854675 143.604 1.12168 144.327 1.65677C145.05 2.19454 145.416 3.01326 145.416 4.11079C145.416 4.71987 145.286 5.29141 145.043 5.82758C144.8 6.36374 144.474 6.82537 144.069 7.21784C143.661 7.60763 143.193 7.91753 142.659 8.14969C142.12 8.384 141.55 8.49498 140.94 8.49498Z" fill="white"/>
<path d="M147.917 12.3162C148.405 12.1736 148.95 12.002 149.542 11.8154C150.137 11.6289 150.801 11.4551 151.543 11.2986C152.277 11.1372 153.106 11.0064 154.017 10.905C154.928 10.8016 155.966 10.7512 157.119 10.7512C160.508 10.7512 162.845 11.7382 164.135 13.7065C165.424 15.6747 165.647 18.3684 164.811 21.7827L161.854 34.1144H155.385L158.25 22.0422C158.425 21.2883 158.562 20.5597 158.664 19.8477C158.766 19.1421 158.76 18.5201 158.64 17.9818C158.526 17.45 158.257 17.0146 157.839 16.6774C157.415 16.3455 156.775 16.1787 155.905 16.1787C155.067 16.1787 154.215 16.2688 153.345 16.4425L149.132 34.1139H142.66L147.917 12.3162Z" fill="white"/>
</g>
<defs>
<clipPath id="clip0_529_832">
<rect width="165.444" height="35.5399" fill="white" transform="translate(0.970703 0.413269)"/>
</clipPath>
</defs>
</svg>
