<svg width="166" height="43" viewBox="0 0 166 43" fill="none" xmlns="http://www.w3.org/2000/svg">
<g clip-path="url(#clip0_529_848)">
<path d="M47.302 24.0685C47.2969 24.3685 47.0504 24.6082 46.7503 24.6048H36.5906C36.8511 27.1179 38.7359 29.4165 41.4023 29.4165C43.2258 29.4165 44.5743 28.7269 45.5857 27.2711C45.6813 27.1158 45.8479 27.0182 46.0301 27.0106C46.1653 27.0068 46.2962 27.0588 46.3919 27.1545C46.4876 27.2502 46.5396 27.3811 46.5358 27.5163C46.5361 27.6088 46.5095 27.6993 46.4592 27.7768C45.4324 29.5544 43.3944 30.4279 41.4023 30.4279C37.985 30.4279 35.5332 27.3631 35.5332 24.0991C35.5332 20.8351 37.9697 17.7703 41.4023 17.7703C44.8348 17.7703 47.2866 20.8045 47.302 24.0685ZM46.214 23.5934C45.9994 21.0803 44.0686 18.7817 41.4023 18.7817C38.7359 18.7817 36.8511 21.0803 36.5906 23.5934H46.214Z" fill="white"/>
<path d="M59.6544 18.0162C59.9303 18.0242 60.1521 18.246 60.1601 18.5219C60.1639 18.6572 60.1119 18.7881 60.0162 18.8837C59.9205 18.9794 59.7896 19.0315 59.6544 19.0276H56.9267V29.739C56.9242 30.0173 56.6993 30.2422 56.421 30.2447C56.1451 30.2367 55.9233 30.0149 55.9153 29.739V19.0276H53.2949C53.1597 19.0315 53.0288 18.9794 52.9331 18.8837C52.8375 18.7881 52.7854 18.6572 52.7893 18.5219C52.7918 18.2437 53.0167 18.0187 53.2949 18.0162H55.9153V14.1086C55.9159 13.8411 56.1108 13.6137 56.3751 13.5723C56.5198 13.5531 56.6656 13.5979 56.7746 13.6951C56.8835 13.7922 56.9447 13.932 56.942 14.078V18.0162H59.6544Z" fill="white"/>
<path d="M76.2807 23.1954V29.6774C76.2727 29.9533 76.0509 30.1751 75.775 30.1831C75.6398 30.187 75.5089 30.1349 75.4132 30.0393C75.3175 29.9436 75.2655 29.8127 75.2693 29.6774V23.1954C75.2693 21.0041 74.0281 18.8281 71.5916 18.8281C68.4655 18.8281 67.117 21.5558 67.3009 24.36C67.3009 24.4367 67.3315 24.7585 67.3315 24.8044V29.6621C67.331 29.9296 67.1361 30.157 66.8718 30.1985C66.7271 30.2177 66.5813 30.1728 66.4723 30.0757C66.3634 29.9785 66.3022 29.8387 66.3048 29.6928V8.37721C66.3073 8.09897 66.5323 7.87402 66.8105 7.87152C67.0864 7.87952 67.3082 8.10131 67.3162 8.37721V20.4218C68.1897 18.8588 69.7527 17.8014 71.5763 17.8014C74.5798 17.8014 76.2807 20.4218 76.2807 23.1954Z" fill="white"/>
<path d="M94.5305 24.0685C94.5254 24.3685 94.2789 24.6082 93.9788 24.6048H83.8191C84.0796 27.1179 85.9644 29.4165 88.6308 29.4165C90.4543 29.4165 91.8028 28.7269 92.8142 27.2711C92.9098 27.1158 93.0764 27.0182 93.2586 27.0106C93.3939 27.0068 93.5247 27.0588 93.6204 27.1545C93.7161 27.2502 93.7681 27.3811 93.7643 27.5163C93.7646 27.6088 93.738 27.6993 93.6877 27.7768C92.661 29.5544 90.6229 30.4279 88.6308 30.4279C85.2136 30.4279 82.7617 27.3631 82.7617 24.0991C82.7617 20.8351 85.1982 17.7703 88.6308 17.7703C92.0327 17.7703 94.5152 20.8045 94.5305 24.0685ZM93.4272 23.5934C93.2126 21.0803 91.2818 18.7817 88.6155 18.7817C85.9491 18.7817 84.0643 21.0803 83.8038 23.5934H93.4272Z" fill="white"/>
<path d="M107.02 18.4897C107.04 18.7729 106.828 19.0193 106.545 19.0414C103.557 19.4857 102.208 21.9222 102.208 24.7572V29.6148C102.208 29.8823 102.013 30.1097 101.749 30.1512C101.604 30.1704 101.458 30.1256 101.349 30.0284C101.24 29.9313 101.179 29.7914 101.182 29.6455V18.5663C101.182 18.2988 101.377 18.0714 101.641 18.03C101.786 18.0108 101.932 18.0556 102.041 18.1527C102.15 18.2499 102.211 18.3897 102.208 18.5357V20.7883C103.051 19.3632 104.722 18.0146 106.468 18.0146C106.729 18.0146 107.02 18.1985 107.02 18.4897Z" fill="white"/>
<path d="M123.724 24.0685C123.719 24.3685 123.472 24.6082 123.172 24.6048H113.012C113.273 27.1179 115.158 29.4165 117.824 29.4165C119.648 29.4165 120.996 28.7269 122.008 27.2711C122.103 27.1158 122.27 27.0182 122.452 27.0106C122.587 27.0068 122.718 27.0588 122.814 27.1545C122.909 27.2502 122.961 27.3811 122.958 27.5163C122.958 27.6088 122.931 27.6993 122.881 27.7768C121.854 29.5544 119.816 30.4279 117.824 30.4279C114.407 30.4279 111.955 27.3631 111.955 24.0991C111.955 20.8351 114.392 17.7703 117.824 17.7703C121.257 17.7703 123.709 20.8045 123.724 24.0685ZM122.636 23.5934C122.421 21.0803 120.49 18.7817 117.824 18.7817C115.158 18.7817 113.273 21.0803 113.012 23.5934H122.636Z" fill="white"/>
<path d="M140.151 18.6126V29.7377C140.143 30.0136 139.921 30.2354 139.645 30.2434C139.51 30.2473 139.379 30.1952 139.283 30.0996C139.187 30.0039 139.135 29.873 139.139 29.7377V27.623C138.296 29.2934 136.81 30.5039 134.91 30.5039C131.891 30.5039 130.221 27.8836 130.221 25.1099V18.5973C130.223 18.319 130.448 18.0941 130.726 18.0916C131.002 18.0996 131.224 18.3214 131.232 18.5973V25.1099C131.232 27.3012 132.473 29.4772 134.91 29.4772C138.327 29.4772 139.139 26.2745 139.139 22.7347V18.5819C139.142 18.4156 139.224 18.2607 139.361 18.1663C139.498 18.0719 139.673 18.0498 139.829 18.1069C140.025 18.1983 140.151 18.3957 140.151 18.6126Z" fill="white"/>
<path d="M165.879 23.1489V29.6615C165.871 29.9374 165.649 30.1592 165.373 30.1672C165.238 30.1711 165.107 30.119 165.011 30.0234C164.916 29.9277 164.864 29.7968 164.868 29.6615V23.1489C164.868 20.9576 163.626 18.8122 161.19 18.8122C158.125 18.8122 156.96 22.0915 156.96 24.6353V29.6615C156.952 29.9374 156.731 30.1592 156.455 30.1672C156.319 30.1711 156.189 30.119 156.093 30.0234C155.997 29.9277 155.945 29.7968 155.949 29.6615V23.1489C155.949 20.9576 154.708 18.8122 152.271 18.8122C149.176 18.8122 147.904 21.2487 148.011 24.4974C148.011 24.574 148.042 24.7119 148.011 24.7579V29.6462C148.011 29.9137 147.816 30.1411 147.552 30.1826C147.407 30.2018 147.261 30.1569 147.152 30.0598C147.043 29.9626 146.982 29.8228 146.984 29.6769V18.567C146.985 18.2995 147.18 18.0721 147.444 18.0307C147.589 18.0115 147.735 18.0563 147.844 18.1535C147.953 18.2506 148.014 18.3904 148.011 18.5364V20.3906C148.885 18.8275 150.448 17.8008 152.271 17.8008C154.34 17.8008 155.949 19.1187 156.608 21.0342C157.451 19.134 159.09 17.8008 161.19 17.8008C164.178 17.8008 165.879 20.3906 165.879 23.1489Z" fill="white"/>
<path d="M0.380859 21.3253L13.0997 28.8494V0.208984L0.380859 21.3253Z" fill="#8992B5"/>
<path d="M13.0996 0.208984V28.8494L25.8338 21.3253L13.0996 0.208984Z" fill="#616792"/>
<path d="M0.380859 23.7463L13.0997 41.6752V31.255L0.380859 23.7463Z" fill="#8992B5"/>
<path d="M13.0996 31.255V41.6752L25.8338 23.7463L13.0996 31.255Z" fill="#616792"/>
<g style="mix-blend-mode:overlay" opacity="0.25">
<path d="M13.0997 15.5482L0.380859 21.3253L13.0997 28.8493L25.8339 21.3253L13.0997 15.5482Z" fill="black"/>
</g>
</g>
<defs>
<clipPath id="clip0_529_848">
<rect width="165.498" height="41.9262" fill="white" transform="translate(0.380859 0.213867)"/>
</clipPath>
</defs>
</svg>
