<svg width="167" height="49" viewBox="0 0 167 49" fill="none" xmlns="http://www.w3.org/2000/svg">
<path d="M23.4925 47.1434C35.8631 47.1434 45.8913 37.115 45.8913 24.7445C45.8913 12.374 35.8631 2.3457 23.4925 2.3457C11.122 2.3457 1.09375 12.374 1.09375 24.7445C1.09375 37.115 11.122 47.1434 23.4925 47.1434Z" fill="#26A17B"/>
<path d="M25.8806 26.8104V26.8067C25.7257 26.8176 24.9262 26.8645 23.1472 26.8645C21.7249 26.8645 20.7274 26.8247 20.3744 26.8067V26.8104C14.9043 26.5691 10.8243 25.6185 10.8243 24.4769C10.8243 23.3389 14.908 22.3846 20.3744 22.1434V25.8632C20.731 25.8885 21.7573 25.9497 23.1725 25.9497C24.8722 25.9497 25.7221 25.8777 25.8806 25.8632V22.147C31.3398 22.3919 35.409 23.3425 35.409 24.4805C35.409 25.6185 31.3362 26.5691 25.8806 26.814V26.8104ZM25.8806 21.7616V18.4342H33.4969V13.3603H12.7617V18.4342H20.378V21.7616C14.1877 22.0461 9.53516 23.2705 9.53516 24.7397C9.53516 26.209 14.1913 27.4333 20.378 27.7215V38.3879H25.8841V27.7215C32.0635 27.437 36.709 26.2126 36.709 24.7434C36.709 23.2776 32.0635 22.0498 25.8841 21.7653" fill="white"/>
<path d="M64.9166 4.15669V9.53673H70.1455V13.5736H64.8806V21.7588C64.8806 23.5665 65.8781 24.4489 67.3402 24.4489C68.0712 24.4489 68.9175 24.2184 69.6088 23.8727L70.9161 27.8699C69.5728 28.4065 68.4566 28.637 67.0341 28.6766C62.9216 28.8314 60.2317 26.4871 60.2317 21.7588V13.5736H56.6953V9.53673H60.2317V4.65724L64.9166 4.15669ZM155.063 9.28466L155.408 11.4741C156.871 9.12981 158.829 8.7841 160.752 8.7841C162.712 8.7841 164.596 9.55113 165.632 10.5882L163.518 14.6611C162.557 13.8544 161.674 13.4295 160.137 13.4295C157.677 13.4295 155.408 14.7367 155.408 18.2333V28.2264H150.72V9.27744L155.063 9.28466ZM143.572 16.5481C143.266 14.0885 141.342 12.8569 138.652 12.8569C136.117 12.8569 134.04 14.0885 133.348 16.5481H143.572ZM133.273 20.4301C133.578 22.7743 135.617 24.4669 138.922 24.4669C140.651 24.4669 142.92 23.8114 143.997 22.6988L146.993 25.6589C144.995 27.7331 141.728 28.7341 138.843 28.7341C132.311 28.7341 128.426 24.6974 128.426 18.6258C128.426 12.8605 132.347 8.70848 138.497 8.70848C144.84 8.70848 148.801 12.6301 148.07 20.4301H133.273ZM112.595 1.32623V11.8558C114.288 9.66637 116.362 9.01097 118.515 9.01097C123.895 9.01097 126.279 12.6625 126.279 18.237V28.23H121.591V18.2766C121.591 14.816 119.783 13.3575 117.284 13.3575C114.515 13.3575 112.595 15.7017 112.595 18.5467V28.2336H107.907V1.32983L112.595 1.32623ZM100.143 3.94062V9.32066H105.371V13.3575H100.107V21.5428C100.107 23.3505 101.108 24.2328 102.566 24.2328C103.297 24.2328 104.143 24.0023 104.835 23.6566L106.142 27.6539C104.799 28.1904 103.682 28.4209 102.26 28.4605C98.1476 28.6153 95.4576 26.2674 95.4576 21.5428V13.3575H91.9212V9.32066H95.4576V4.44118L100.143 3.94062ZM87.1894 16.5481C86.8833 14.0885 84.9603 12.8569 82.2703 12.8569C79.7351 12.8569 77.6574 14.0885 76.9659 16.5481H87.1894ZM76.8903 20.4301C77.1964 22.7743 79.2346 24.4669 82.5404 24.4669C84.2689 24.4669 86.5377 23.8114 87.6144 22.6988L90.6105 25.6589C88.6119 27.7331 85.3457 28.7341 82.4612 28.7341C75.9253 28.7341 72.0432 24.6974 72.0432 18.6258C72.0432 12.8605 75.9648 8.70848 82.1118 8.70848C88.4534 8.70848 92.411 12.6301 91.6836 20.4301H76.8903Z" fill="white"/>
<path d="M65.3928 47.712V37.1213H68.8848V34.8518H59.1738V37.1213H62.666V47.712H65.3928ZM73.591 47.712V42.7774H75.0423L78.1121 47.712H81.1382C80.5517 46.8676 79.2909 44.9998 77.3557 42.1088C78.1181 41.7746 78.7075 41.3127 79.1238 40.7234C79.5402 40.1341 79.7483 39.4612 79.7483 38.7046C79.7483 37.4087 79.329 36.4425 78.4905 35.8063C77.6518 35.1701 76.3588 34.8518 74.6112 34.8518H70.8641V47.712H73.591ZM74.4705 40.5606H73.591V37.0862H74.4178C75.2974 37.0862 75.9469 37.2151 76.3661 37.4732C76.7854 37.7312 76.9951 38.1651 76.9951 38.775C76.9951 39.3907 76.7899 39.8423 76.3794 40.1297C75.9688 40.417 75.3326 40.5606 74.4705 40.5606ZM87.964 47.8879C89.2659 47.8879 90.4446 47.668 91.5001 47.2283V44.9412C90.2159 45.3928 89.1222 45.6185 88.2191 45.6185C86.067 45.6185 84.9909 44.1848 84.9909 41.3172C84.9909 39.9391 85.2724 38.8645 85.8353 38.0932C86.3983 37.3221 87.1929 36.9366 88.2191 36.9366C88.6883 36.9366 89.1662 37.0216 89.6528 37.1917C90.1396 37.3617 90.6235 37.5612 91.1043 37.7898L91.9838 35.5732C90.7232 34.9691 89.4682 34.6671 88.2191 34.6671C86.9935 34.6671 85.9248 34.9355 85.0129 35.472C84.1011 36.0086 83.4017 36.7797 82.915 37.7854C82.4283 38.7912 82.1849 39.9625 82.1849 41.2996C82.1849 43.4224 82.6804 45.0512 83.6715 46.1859C84.6625 47.3205 86.0933 47.8879 87.964 47.8879ZM102.328 47.712V45.4251H96.7251V45.3018L98.3788 43.745C99.4813 42.7362 100.251 41.9592 100.688 41.414C101.125 40.8685 101.447 40.3364 101.655 39.8174C101.864 39.2983 101.968 38.7427 101.968 38.1504C101.968 37.4702 101.798 36.8662 101.458 36.3385C101.117 35.8107 100.64 35.4002 100.024 35.1069C99.4079 34.8138 98.6984 34.6671 97.8951 34.6671C97.2852 34.6671 96.7339 34.7272 96.2413 34.8474C95.7487 34.9677 95.2942 35.1392 94.8779 35.362C94.4616 35.585 93.9366 35.9661 93.3033 36.5056L94.7811 38.2561C95.2913 37.8338 95.781 37.5084 96.2501 37.2796C96.7192 37.051 97.2031 36.9366 97.7015 36.9366C98.1765 36.9366 98.5562 37.0626 98.8405 37.3148C99.125 37.567 99.2672 37.9511 99.2672 38.4671C99.2672 38.8131 99.2028 39.1474 99.0737 39.4699C98.9447 39.7924 98.7336 40.1428 98.4403 40.521C98.1471 40.8994 97.5227 41.5781 96.5667 42.5574L93.3385 45.8209V47.712H102.328ZM108.037 47.8879C109.568 47.8879 110.701 47.3485 111.437 46.2694C112.173 45.1905 112.541 43.528 112.541 41.282C112.541 39.1122 112.161 37.4644 111.402 36.3385C110.642 35.2126 109.521 34.6495 108.037 34.6495C106.512 34.6495 105.384 35.1875 104.651 36.2637C103.917 37.3397 103.551 39.0125 103.551 41.282C103.551 43.4576 103.928 45.1024 104.681 46.2167C105.435 47.3309 106.553 47.8879 108.037 47.8879ZM108.037 45.6976C107.392 45.6976 106.933 45.3561 106.66 44.6729C106.388 43.9898 106.252 42.8595 106.252 41.282C106.252 39.7045 106.389 38.5713 106.665 37.8822C106.94 37.1932 107.398 36.8486 108.037 36.8486C108.665 36.8486 109.121 37.1932 109.405 37.8822C109.689 38.5713 109.832 39.7045 109.832 41.282C109.832 42.8418 109.691 43.9678 109.409 44.6597C109.128 45.3517 108.67 45.6976 108.037 45.6976Z" fill="#F4A02B"/>
</svg>
