<svg width="623" height="619" viewBox="0 0 623 619" fill="none" xmlns="http://www.w3.org/2000/svg">
<path fill-rule="evenodd" clip-rule="evenodd" d="M39.0843 292.846L142.264 284.269L153.451 292.201L182.132 289.184L207.658 265.118L338.062 269.682L349.784 260.478L462.932 268.375L469.388 275.224L513.243 274.532L531.691 294.099L569.833 293.249L597.441 263.524L598.454 292.136L609.879 292.453L609.582 301.972L468.676 298.071L455.913 310.104L379.747 307.995L370.912 316.325L357.761 310.245L325.39 309.348L333.605 351.499L376.035 396.502L345.6 425.196L299.481 376.279L286.714 327.333L275.289 327.017L263.508 338.124L234.023 336.355L226.644 328.528L197.639 372.507L167.529 360.239L199.42 315.388L191.982 309.466L34.0017 364.165L39.0843 292.846ZM500.54 284.661L506.074 290.531L490.841 290.11L475.608 289.688L470.073 283.818L500.54 284.661ZM577.449 293.46L591.313 276.694L592.742 291.978L577.449 293.46ZM231.553 323.9L231.046 309.594L239.585 310.784C238.129 326.941 256.307 324.586 248.809 320.567C242.811 317.352 246.547 311.612 249.165 309.143L269.189 308.745L270.677 322.125L260.86 331.381L238.01 330.749L231.553 323.9Z" fill="#C83538"/>
</svg>
