<svg width="858" height="356" viewBox="0 0 858 356" fill="none" xmlns="http://www.w3.org/2000/svg">
<path d="M708 176.5H858M0 176.5H150M206 10.3067C170.842 56.9866 150 115.059 150 178C150 240.94 170.842 299.013 206 345.693V340.657C172.672 295.043 153 238.819 153 178C153 117.181 172.672 60.9562 206 15.3421V10.3067ZM648 345.996C683.748 299.464 705 241.214 705 178C705 114.786 683.748 56.5356 648 10.0037V5.12305C685.572 52.6544 708 112.708 708 178C708 243.292 685.572 303.345 648 350.876V345.996Z" stroke="#C83538" stroke-opacity="0.8" stroke-width="3"/>
</svg>
