<svg width="19" height="23" viewBox="0 0 19 23" fill="none" xmlns="http://www.w3.org/2000/svg">
<path fill-rule="evenodd" clip-rule="evenodd" d="M5.12486 1.06017C4.20539 1.371 3.46612 2.17775 3.27712 3.07681C3.23302 3.28645 3.17617 3.35132 3.03638 3.35132C2.72281 3.35132 2.02739 3.76462 1.66866 4.16406C1.20979 4.67517 1.00286 5.17792 1.00006 5.78886C0.996851 6.46823 1.12142 6.8811 1.50986 7.47819C2.00197 8.23476 3.02379 8.93127 4.44951 9.482L5.13177 9.74553L4.61407 9.93693C2.85717 10.5864 1.54573 11.5992 1.18856 12.5825C0.940984 13.2637 0.948554 14.0643 1.20798 14.6362C1.53043 15.347 2.24897 15.9534 2.94447 16.1016C3.15453 16.1464 3.21171 16.2191 3.32822 16.5899C3.51771 17.1929 3.89668 17.7273 4.35638 18.0399C4.86733 18.3874 5.2988 18.499 5.93152 18.4474C6.9763 18.3622 7.87338 17.6922 8.54305 16.4971L8.83333 15.9791L8.78083 16.3169C8.35644 19.0471 7.5139 20.6159 5.99224 21.5096C5.52852 21.7819 5.40181 22.0119 5.55279 22.3066C5.76943 22.7295 6.02762 22.7075 6.78047 22.2022C8.41938 21.1021 9.34921 19.2806 9.76859 16.3484C9.83927 15.8546 9.89703 15.4235 9.89703 15.3904C9.89703 15.3573 10.0852 15.7161 10.3151 16.1876C11.0238 17.6407 11.9519 18.3896 13.1292 18.4578C14.3063 18.5262 15.381 17.7199 15.669 16.5525C15.7517 16.217 15.7815 16.1895 16.1948 16.0662C17.4003 15.7064 18.2096 14.3936 17.9726 13.1824C17.8538 12.575 17.5479 11.9837 17.1167 11.5284C16.5816 10.963 15.3932 10.2846 14.2632 9.89935L13.8193 9.74798L14.4486 9.51249C15.3037 9.19244 16.5097 8.52947 16.9341 8.14616C17.9299 7.24667 18.275 5.89495 17.7831 4.82079C17.4636 4.12293 16.4994 3.35487 15.9395 3.35217C15.8054 3.35149 15.7481 3.2639 15.6656 2.93338C15.3639 1.72484 14.1785 0.872314 12.9992 1.01574C11.6492 1.17986 10.5079 2.43157 9.73346 4.59763C9.54874 5.11406 9.48662 5.21626 9.4384 5.08289C8.91272 3.62905 8.30979 2.48808 7.78732 1.95839C7.21383 1.37692 6.55174 1.0529 5.8657 1.01793C5.57139 1.0029 5.23799 1.02199 5.12486 1.06017ZM6.50698 2.24456C7.27258 2.64552 7.89625 3.72019 8.61702 5.88042C9.06223 7.21491 9.10764 7.30546 9.36518 7.37177C9.57671 7.42633 9.97931 7.22378 9.97931 7.06296C9.97931 6.89453 10.8677 4.4787 11.1686 3.82856C11.8458 2.36594 12.9319 1.69789 13.8416 2.1845C14.3884 2.47693 14.6735 2.89419 14.7436 3.50497C14.8112 4.09336 14.931 4.28046 15.2403 4.28046C15.9006 4.28046 16.5999 4.70651 16.8903 5.28561C17.0494 5.6027 17.0139 6.23206 16.8145 6.63328C16.3891 7.48943 15.5792 7.99048 13.2344 8.84807C11.8444 9.35648 11.6459 9.49897 11.7845 9.88862C11.8664 10.1185 12.0252 10.1993 13.3116 10.6651C15.4794 11.4501 16.4132 12.0304 16.8247 12.8484C17.2192 13.6325 16.9168 14.5575 16.1352 14.9573C15.8994 15.0779 15.5728 15.1767 15.4093 15.1767C14.9604 15.1767 14.8367 15.318 14.7529 15.9265C14.6598 16.6026 14.3861 17.0406 13.9081 17.2781C13.2081 17.626 12.6153 17.4674 11.9083 16.743C11.4946 16.3191 11.3463 16.0819 11.0344 15.3456C10.8278 14.8578 10.4999 13.9836 10.3055 13.4029C9.93043 12.2817 9.80158 12.0514 9.54973 12.0514C9.23723 12.0514 9.0865 12.224 8.90516 12.7896C8.5906 13.7709 8.03744 15.1984 7.72462 15.8361C7.10794 17.0932 6.10899 17.7072 5.23306 17.3674C4.70466 17.1625 4.22522 16.4431 4.2216 15.8501C4.21905 15.4291 4.02405 15.1767 3.70086 15.1761C3.05563 15.175 2.39065 14.7815 2.11749 14.2392C1.94635 13.8993 1.96881 13.2653 2.16694 12.8451C2.552 12.0285 3.40474 11.5008 5.74006 10.6342C6.81133 10.2366 7.07684 10.1056 7.175 9.92604C7.38506 9.54188 7.16035 9.32624 6.21834 9.00831C5.1753 8.65625 3.71814 8.04885 3.27005 7.77923C2.83578 7.51798 2.27217 6.90154 2.11543 6.51646C1.71449 5.53141 2.29727 4.54982 3.40252 4.34845C4.06412 4.228 4.21979 4.09936 4.21979 3.6734C4.21979 2.73582 5.01567 1.93482 5.84504 2.03778C6.03749 2.0616 6.33543 2.15469 6.50698 2.24456Z" fill="#C83538" stroke="#C83538" stroke-width="0.5"/>
</svg>
