<svg width="166" height="36" viewBox="0 0 166 36" fill="none" xmlns="http://www.w3.org/2000/svg">
<path fill-rule="evenodd" clip-rule="evenodd" d="M31.799 0.517509C29.0378 0.705297 26.7637 1.31456 24.4823 2.47772C21.3393 4.08012 18.7612 6.57826 17.0323 9.69634C15.9364 11.6729 15.1754 14.1867 14.9749 16.493C14.9438 16.8511 14.9242 15.0445 14.9193 11.3642L14.9117 5.68245H7.67459C0.806978 5.68245 0.43898 5.68737 0.468188 5.77922C0.994389 7.4342 7.88961 29.0493 8.17675 29.9439L8.58936 31.2296H11.7505H14.9117L14.9214 25.1055C14.9266 21.7372 14.9392 19.0933 14.9494 19.2302C15.4033 25.376 19.1263 30.8622 24.7239 33.634C27.3315 34.9252 29.831 35.5093 32.7341 35.506C34.0133 35.5045 34.6551 35.4531 35.787 35.2615C43.3092 33.9882 49.2681 27.964 50.359 20.5297C51.1664 15.0277 49.4266 9.73223 45.5261 5.81948C42.6252 2.90943 38.871 1.08767 34.8244 0.626442C34.0762 0.541119 32.3598 0.479354 31.799 0.517509ZM71.2319 10.4944C70.0568 10.6281 69.1041 11.0535 68.1232 11.8826L67.6088 12.3174V11.5436V10.7698H65.4085H63.2082V18.6496V26.5294H65.4065H67.6048L67.6219 21.6218C67.6408 16.1904 67.6218 16.485 68.0044 15.6912C68.3544 14.9649 69.1973 14.319 70.018 14.1482C71.5807 13.823 73.0861 14.6832 73.5412 16.1612C73.6148 16.4 73.629 17.1142 73.6454 21.4006L73.6645 26.3635H75.9148H78.165L78.1847 21.5941C78.2059 16.4598 78.1989 16.5895 78.4986 15.7893C78.873 14.7892 79.802 14.17 81.0299 14.102C81.6229 14.0692 81.9755 14.1452 82.5262 14.4247C82.9874 14.6587 83.5783 15.2398 83.7782 15.6561C84.1098 16.3464 84.111 16.3677 84.111 21.6886V26.5294H86.3141H88.5172L88.4975 21.2623C88.4787 16.2087 88.4732 15.966 88.361 15.2718C88.1949 14.2425 88.101 13.9119 87.797 13.2858C87.46 12.5917 87.1016 12.1488 86.5196 11.7069C85.7137 11.0951 84.8195 10.7484 83.5887 10.5704C83.0588 10.4938 82.8373 10.4891 82.1479 10.5399C81.1909 10.6105 80.7017 10.7332 80.0129 11.0758C79.3663 11.3975 78.8895 11.7642 78.2063 12.4651C77.6563 13.0292 77.6454 13.0369 77.3916 13.0369C77.1486 13.0369 77.1238 13.0225 76.9412 12.7743C76.7174 12.4701 76.3019 12.061 76.0249 11.872C75.919 11.7998 75.6962 11.6298 75.5298 11.4943C75.1596 11.1926 74.4629 10.8574 73.9121 10.7157C73.1145 10.5107 71.941 10.4138 71.2319 10.4944ZM98.6054 10.5454C96.7015 10.8857 95.0568 11.7032 93.8748 12.8965C92.6693 14.1136 91.9036 15.5485 91.6058 17.149C91.4593 17.9362 91.4756 19.7917 91.6356 20.5354C92.1053 22.719 93.2335 24.3724 95.1124 25.6305C96.1578 26.3305 97.5332 26.7977 99.073 26.9756C100.04 27.0874 101.867 26.9337 102.795 26.6626C104.355 26.2068 106.382 24.7056 107.288 23.3353C108.792 21.0614 108.915 17.7862 107.6 15.0553C107.191 14.2056 106.716 13.532 106.058 12.8715C104.859 11.6658 103.263 10.8386 101.578 10.549C100.739 10.4047 99.4013 10.4031 98.6054 10.5454ZM137.185 10.5221C136.522 10.6131 135.725 10.8246 135.078 11.0811C132.178 12.232 130.244 14.7436 129.932 17.7645C129.856 18.5029 129.985 20.0909 130.186 20.8921C130.803 23.3531 132.486 25.2423 134.893 26.1768C135.896 26.5664 137.781 26.9164 138.875 26.9164C140.702 26.9164 142.754 26.3233 144.447 25.3052C145.003 24.9713 146.053 24.1897 146.313 23.9167L146.494 23.7263L145.02 22.7535C144.21 22.2185 143.506 21.7651 143.456 21.746C143.395 21.7226 143.224 21.826 142.933 22.0618C141.665 23.0902 140.049 23.6592 138.623 23.5793C136.748 23.4742 135.544 22.8809 134.748 21.6696C134.471 21.2492 134.209 20.6787 134.257 20.6011C134.272 20.577 137.029 20.5573 140.383 20.5573H146.481L146.527 20.2393C146.551 20.0645 146.572 19.461 146.572 18.8984C146.572 17.9835 146.555 17.7995 146.416 17.1565C146.331 16.7612 146.199 16.2511 146.124 16.023C145.572 14.3614 144.337 12.7492 142.874 11.7824C142.325 11.4197 141.335 10.9363 140.753 10.7468C139.877 10.4614 138.336 10.3643 137.185 10.5221ZM119.238 10.5821C118.02 10.8034 116.95 11.3468 116.056 12.1991L115.74 12.5008V11.6353V10.7698H113.567H111.395V18.6496V26.5294H113.564H115.734L115.756 21.8706C115.78 16.5956 115.767 16.7706 116.215 15.8571C116.643 14.9864 117.32 14.4237 118.148 14.2499C118.657 14.1432 119.743 14.2123 120.283 14.3858C121.073 14.6402 121.71 15.1464 122.023 15.7702C122.332 16.3849 122.337 16.4873 122.339 21.7324L122.341 26.5294H124.544H126.748L126.725 21.1794C126.701 15.4518 126.707 15.5707 126.416 14.5039C125.714 11.9316 123.549 10.4799 120.443 10.4986C120.02 10.5011 119.478 10.5387 119.238 10.5821ZM147.809 10.8228C147.809 10.8519 149.248 14.3792 151.007 18.6611C152.765 22.943 154.205 26.4716 154.206 26.5025C154.208 26.5333 153.62 27.8521 152.9 29.4332C152.18 31.0143 151.579 32.3517 151.564 32.4052C151.538 32.4973 151.671 32.5018 153.994 32.4881L156.451 32.4738L160.959 21.6408C163.438 15.6827 165.467 10.7991 165.467 10.7882C165.467 10.7774 164.387 10.7751 163.068 10.783L160.669 10.7974L158.969 14.9447C158.034 17.2257 157.142 19.4106 156.987 19.8001C156.828 20.1984 156.684 20.4873 156.657 20.4604C156.631 20.4342 156.561 20.2728 156.501 20.1019C156.417 19.8627 153.904 13.6971 152.86 11.1707L152.695 10.7698H150.252C148.73 10.7698 147.809 10.7897 147.809 10.8228ZM31.634 11.6216C30.5833 11.8094 29.5296 12.2403 28.7389 12.8055C27.3315 13.8115 26.3902 15.3024 26.0973 16.9898C25.9735 17.7027 26.0215 18.8 26.208 19.522C26.824 21.9063 28.8543 23.8056 31.3678 24.3489C31.9503 24.4748 32.951 24.5114 33.5926 24.4302C36.2082 24.0992 38.3494 22.3055 39.1395 19.7834C39.6242 18.2364 39.5109 16.7267 38.7999 15.2572C37.9227 13.444 36.2246 12.1409 34.1368 11.6786C33.6035 11.5605 32.1596 11.5275 31.634 11.6216ZM98.8804 14.2762C98.0369 14.442 97.4636 14.7663 96.8313 15.4355C96.18 16.1247 95.788 17.0069 95.659 18.0736C95.4944 19.4344 96.0368 21.1356 96.8853 21.9194C97.1671 22.1797 97.9705 22.6043 98.4754 22.7598C99.7075 23.1394 101.433 22.968 102.31 22.3788C102.844 22.0207 103.369 21.4124 103.656 20.82C103.996 20.1195 104.082 19.7375 104.116 18.7878C104.151 17.7918 104.072 17.3612 103.72 16.6454C103.219 15.6253 102 14.6403 100.861 14.3352C100.403 14.2127 99.3616 14.1817 98.8804 14.2762ZM137.633 14.3631C136.431 14.5127 135.445 15.1594 134.68 16.2994C134.486 16.5879 134.278 16.9882 134.278 17.0714C134.278 17.1416 142.012 17.1532 142.055 17.0831C142.071 17.0578 141.97 16.8028 141.83 16.5163C141.615 16.0734 141.502 15.9206 141.077 15.4974C140.509 14.9326 140.03 14.6451 139.382 14.4795C138.894 14.3547 138.116 14.3029 137.633 14.3631Z" fill="white"/>
</svg>
