<svg width="166" height="49" viewBox="0 0 166 49" fill="none" xmlns="http://www.w3.org/2000/svg">
<g clip-path="url(#clip0_529_884)">
<path d="M22.7566 47.1452C35.1284 47.1452 45.1577 37.1158 45.1577 24.744C45.1577 12.3722 35.1284 2.3429 22.7566 2.3429C10.3848 2.3429 0.355469 12.3722 0.355469 24.744C0.355469 37.1158 10.3848 47.1452 22.7566 47.1452Z" fill="#26A17B"/>
<path d="M25.1439 26.8113V26.8076C24.989 26.8185 24.1896 26.8654 22.4104 26.8654C20.9878 26.8654 19.9902 26.8256 19.6372 26.8076V26.8113C14.1667 26.57 10.0862 25.6192 10.0862 24.4776C10.0862 23.3395 14.1703 22.385 19.6372 22.1438V25.864C19.9938 25.8893 21.0203 25.9505 22.4356 25.9505C24.1356 25.9505 24.9854 25.8785 25.1439 25.864V22.1474C30.6037 22.3923 34.6734 23.3431 34.6734 24.4811C34.6734 25.6192 30.6002 26.57 25.1439 26.8149V26.8113ZM25.1439 21.762V18.4343H32.761V13.3598H12.0238V18.4343H19.6409V21.762C13.45 22.0465 8.79688 23.271 8.79688 24.7404C8.79688 26.2099 13.4536 27.4343 19.6409 27.7225V38.39H25.1475V27.7225C31.3277 27.438 35.9735 26.2134 35.9735 24.7441C35.9735 23.2782 31.3277 22.0502 25.1475 21.7657" fill="white"/>
<path d="M64.185 4.15411V9.53471H69.4143V13.5719H64.149V21.7581C64.149 23.566 65.1466 24.4484 66.6088 24.4484C67.3399 24.4484 68.1862 24.2179 68.8777 23.8722L70.185 27.8698C68.8417 28.4064 67.7252 28.6369 66.3026 28.6765C62.1898 28.8314 59.4995 26.4868 59.4995 21.7581V13.5719H55.9629V9.53471H59.4995V4.65472L64.185 4.15411ZM154.341 9.28261L154.686 11.4723C156.148 9.12774 158.108 8.782 160.031 8.782C161.989 8.782 163.873 9.54911 164.91 10.5863L162.797 14.6596C161.835 13.8529 160.953 13.4279 159.414 13.4279C156.956 13.4279 154.686 14.7352 154.686 18.2322V28.2263H149.997V9.27539L154.341 9.28261ZM142.849 16.5468C142.542 14.087 140.619 12.8552 137.929 12.8552C135.393 12.8552 133.315 14.087 132.624 16.5468H142.849ZM132.548 20.4292C132.854 22.7737 134.893 24.4664 138.199 24.4664C139.927 24.4664 142.196 23.8109 143.274 22.6981L146.27 25.6585C144.271 27.7329 141.004 28.7341 138.12 28.7341C131.586 28.7341 127.7 24.6969 127.7 18.6247C127.7 12.8588 131.622 8.70637 137.774 8.70637C144.116 8.70637 148.077 12.6284 147.346 20.4292H132.548ZM111.868 1.32336V11.854C113.561 9.66436 115.636 9.00889 117.789 9.00889C123.17 9.00889 125.554 12.6608 125.554 18.2359V28.2299H120.865V18.2755C120.865 14.8145 119.057 13.3559 116.558 13.3559C113.788 13.3559 111.868 15.7004 111.868 18.5456V28.2335H107.179V1.32697L111.868 1.32336ZM99.4146 3.93802V9.31862H104.644V13.3559H99.3786V21.542C99.3786 23.3499 100.38 24.2323 101.838 24.2323C102.569 24.2323 103.416 24.0018 104.107 23.656L105.415 27.6537C104.071 28.1903 102.955 28.4208 101.532 28.4604C97.4193 28.6152 94.729 26.2671 94.729 21.542V13.3559H91.1924V9.31862H94.729V4.43863L99.4146 3.93802ZM86.46 16.5468C86.1539 14.087 84.2307 12.8552 81.5405 12.8552C79.0051 12.8552 76.927 14.087 76.2355 16.5468H86.46ZM76.1599 20.4292C76.466 22.7737 78.5044 24.4664 81.8106 24.4664C83.5393 24.4664 85.8082 23.8109 86.885 22.6981L89.8814 25.6585C87.8826 27.7329 84.6161 28.7341 81.7313 28.7341C75.1947 28.7341 71.3123 24.6969 71.3123 18.6247C71.3123 12.8588 75.2343 8.70637 81.382 8.70637C87.7241 8.70637 91.6822 12.6284 90.9546 20.4292H76.1599Z" fill="white"/>
<path fill-rule="evenodd" clip-rule="evenodd" d="M68.1543 45.3511V47.7152H58.4395V37.1234H58.4422V34.8537H68.1543V37.1234H61.1666V40.2223H65.8091V42.3203H61.1666V45.3511H68.1543ZM72.8609 42.7801V47.7152H70.1336V34.8537H73.8812C75.629 34.8537 76.9221 35.172 77.7609 35.8083C78.5995 36.4446 79.0188 37.4109 79.0188 38.707C79.0188 39.4635 78.8107 40.1365 78.3941 40.726C77.9779 41.3153 77.3883 41.7772 76.626 42.1115C78.5614 45.0028 79.8223 46.8708 80.4088 47.7152H77.3825L74.3123 42.7801H72.8609ZM72.8609 40.5631H73.7405C74.6027 40.5631 75.239 40.4195 75.6495 40.1322C76.06 39.8447 76.2653 39.3931 76.2653 38.7773C76.2653 38.1674 76.0556 37.7334 75.6363 37.4753C75.217 37.2173 74.5675 37.0882 73.6877 37.0882H72.8609V40.5631ZM90.7719 47.2314C89.7161 47.6713 88.5374 47.8912 87.2354 47.8912C85.3645 47.8912 83.9335 47.3239 82.9424 46.1889C81.9511 45.0542 81.4557 43.4251 81.4557 41.3022C81.4557 39.9649 81.6991 38.7935 82.1859 37.7877C82.6726 36.7818 83.3719 36.0106 84.2838 35.474C85.1959 34.9374 86.2648 34.669 87.4905 34.669C88.7397 34.669 89.9947 34.9712 91.2556 35.5752L90.376 37.792C89.895 37.5632 89.4112 37.364 88.9244 37.1939C88.4377 37.0237 87.9597 36.9387 87.4905 36.9387C86.4642 36.9387 85.6695 37.3243 85.1064 38.0955C84.5435 38.8668 84.2619 39.9415 84.2619 41.3198C84.2619 44.1876 85.3381 45.6215 87.4905 45.6215C88.3937 45.6215 89.4875 45.3958 90.7719 44.9441V47.2314ZM101.601 45.4281V47.7152H92.6105V45.8239L95.839 42.5601C96.7949 41.5807 97.4195 40.9019 97.7128 40.5235C98.0061 40.1453 98.2172 39.7949 98.3462 39.4723C98.4753 39.1498 98.5398 38.8155 98.5398 38.4694C98.5398 37.9533 98.3976 37.5692 98.113 37.317C97.8286 37.0648 97.4489 36.9387 96.9738 36.9387C96.4754 36.9387 95.9915 37.0531 95.5223 37.2818C95.0531 37.5106 94.5635 37.8361 94.0532 38.2583L92.5752 36.5076C93.2086 35.9681 93.7336 35.5869 94.15 35.364C94.5664 35.1412 95.0209 34.9696 95.5135 34.8494C96.0062 34.7291 96.5575 34.669 97.1675 34.669C97.9708 34.669 98.6805 34.8156 99.2963 35.1089C99.912 35.4021 100.39 35.8127 100.73 36.3406C101.07 36.8683 101.241 37.4724 101.241 38.1527C101.241 38.745 101.136 39.3008 100.928 39.8198C100.72 40.3388 100.397 40.8711 99.9605 41.4164C99.5236 41.9619 98.7538 42.7391 97.6512 43.7478L95.9973 45.3049V45.4281H101.601ZM110.711 46.2725C109.975 47.3517 108.841 47.8912 107.311 47.8912C105.827 47.8912 104.708 47.3341 103.954 46.2198C103.201 45.1054 102.824 43.4604 102.824 41.2845C102.824 39.0149 103.19 37.342 103.924 36.2658C104.657 35.1895 105.786 34.6514 107.311 34.6514C108.794 34.6514 109.916 35.2144 110.675 36.3406C111.435 37.4666 111.815 39.1145 111.815 41.2845C111.815 43.5308 111.447 45.1934 110.711 46.2725ZM105.934 44.6759C106.206 45.3591 106.665 45.7007 107.311 45.7007C107.944 45.7007 108.401 45.3547 108.683 44.6627C108.964 43.9706 109.105 42.8446 109.105 41.2845C109.105 39.7069 108.963 38.5736 108.678 37.8844C108.394 37.1953 107.938 36.8508 107.311 36.8508C106.671 36.8508 106.214 37.1953 105.938 37.8844C105.662 38.5736 105.525 39.7069 105.525 41.2845C105.525 42.8622 105.661 43.9926 105.934 44.6759Z" fill="#39DAA8"/>
</g>
<defs>
<clipPath id="clip0_529_884">
<rect width="165.497" height="47.6631" fill="white" transform="translate(0.355469 0.769043)"/>
</clipPath>
</defs>
</svg>
