<svg width="166" height="51" viewBox="0 0 166 51" fill="none" xmlns="http://www.w3.org/2000/svg">
<g clip-path="url(#clip0_529_868)">
<path d="M142.561 11.0891L162.121 32.8375V12.8399H164.884V40.1143L145.297 18.3385V38.3361H142.561V11.0891ZM99.3108 12.8399C103.606 12.8399 107.08 16.3415 107.08 20.6638C107.08 24.0287 104.892 27.0652 101.746 28.1048L107.217 38.3635H104.044L98.8184 28.4878H92.4444V38.3635H89.7087V25.7248H99.3929C102.101 25.6974 104.317 23.4268 104.317 20.6638C104.317 17.8735 102.074 15.6029 99.3382 15.6029H87.4655V38.3361H84.7298V12.8399H99.3108ZM147.54 24.4937L150.331 27.5577V38.3361H147.54V24.4937ZM124.643 12.8399C131.674 12.8399 137.391 18.5574 137.391 25.588C137.391 32.6186 131.674 38.3361 124.643 38.3361C117.612 38.3361 111.895 32.6186 111.895 25.588C111.895 18.5574 117.612 12.8399 124.643 12.8399ZM66.8387 20.4176V38.3088H64.103V20.4176H66.8387ZM71.7902 20.4176V38.3088H69.0546V20.4176H71.7902ZM124.643 15.5755C119.117 15.5755 114.63 20.062 114.63 25.588C114.63 31.114 119.117 35.6005 124.643 35.6005C130.142 35.6005 134.628 31.0867 134.655 25.588C134.655 20.062 130.169 15.5755 124.643 15.5755ZM124.643 23.7551C125.655 23.7551 126.476 24.5758 126.476 25.588C126.476 26.6002 125.655 27.4209 124.643 27.4209C123.631 27.4209 122.81 26.6002 122.81 25.588C122.81 24.5758 123.631 23.7551 124.643 23.7551ZM79.1217 12.8399V15.5755H56.7715V12.8399H79.1217Z" fill="white"/>
<path d="M37.9236 7.77803L0.746094 0.938904L20.306 50.1533L47.5531 16.9698L37.9236 7.77803ZM37.3217 10.8146L43.0119 16.2312L27.4734 19.0489L37.3217 10.8146ZM24.0812 18.4744L7.69465 4.87824L34.4767 9.80241L24.0812 18.4744ZM22.9049 20.8818L20.2513 42.9585L5.8344 6.68377L22.9049 20.8818ZM25.3943 22.0308L42.6015 18.9121L22.8501 42.9858L25.3943 22.0308Z" fill="#E5001E"/>
</g>
<defs>
<clipPath id="clip0_529_868">
<rect width="165.426" height="49.5153" fill="white" transform="translate(0.527344 0.831116)"/>
</clipPath>
</defs>
</svg>
