<svg width="15" height="22" viewBox="0 0 15 22" fill="none" xmlns="http://www.w3.org/2000/svg">
<path d="M14.0947 11.7275L14.0947 15.4545C14.0947 18.5972 11.1635 21.1456 7.54736 21.1456C3.9312 21.1456 1 18.5972 1 15.4545L1 11.7275C1 14.8702 3.9312 17.1165 7.54736 17.1165C11.1635 17.1165 14.0947 14.8702 14.0947 11.7275Z" stroke="#C83538" stroke-width="1.61538" stroke-linecap="round" stroke-linejoin="round"/>
<path d="M14.0947 6.69117C14.0947 7.6078 13.8429 8.45392 13.3997 9.17917C12.3219 10.952 10.1059 12.0802 7.54736 12.0802C4.98886 12.0802 2.77282 10.952 1.69503 9.17917C1.25182 8.45392 1 7.6078 1 6.69117C1 5.1198 1.73531 3.69953 2.91383 2.6721C4.10243 1.63459 5.73425 1 7.54736 1C9.36048 1 10.9923 1.63459 12.1809 2.66202C13.3594 3.69953 14.0947 5.1198 14.0947 6.69117Z" stroke="#C83538" stroke-width="1.61538" stroke-linecap="round" stroke-linejoin="round"/>
<path d="M14.0947 6.69117L14.0947 11.7276C14.0947 14.8703 11.1635 17.1166 7.54736 17.1166C3.9312 17.1166 1 14.8703 1 11.7276L1 6.69117C1 3.54844 3.9312 1 7.54736 1C9.36048 1 10.9923 1.63459 12.1809 2.66202C13.3594 3.69953 14.0947 5.1198 14.0947 6.69117Z" stroke="#C83538" stroke-width="1.61538" stroke-linecap="round" stroke-linejoin="round"/>
</svg>
