<svg width="26" height="26" viewBox="0 0 26 26" fill="none" xmlns="http://www.w3.org/2000/svg">
<path id="image 15 (Traced)" d="M18.899 2.69687L19.2227 2.31573C18.0428 1.31391 16.6434 0.716656 15.0491 0.525692C14.5906 0.470762 13.9489 0.509021 13.3505 0.593025C12.7532 0.676879 12.1294 0.816069 11.7131 0.995069L11.7131 0.995078C10.5138 1.51082 10.1776 3.01568 11.186 3.90383C11.4505 4.1368 11.7323 4.31438 12.1336 4.34389C12.4846 4.3697 12.8836 4.27594 13.3707 4.13511L13.3708 4.1351C13.5553 4.08173 13.9924 4.02481 14.3151 4.02178C16.5516 4.00105 18.347 5.77995 18.3508 8.02664C18.3536 9.64754 17.5631 10.9183 16.0282 11.7015C15.4181 12.0128 15.0979 12.2064 14.8804 12.5946L14.8804 12.5946C14.2322 13.7516 15.0204 15.1785 16.365 15.1785C16.7049 15.1785 17.0739 15.0732 17.4262 14.9238C17.7857 14.7714 18.1624 14.5582 18.5274 14.3088C19.2529 13.8131 19.9752 13.1445 20.4486 12.4526L20.4487 12.4525C21.143 11.4377 21.6685 10.0777 21.8228 8.88776L21.8228 8.8877L21.87 8.52316L21.8962 8.3213C22.087 8.34245 22.2765 8.34498 22.4449 8.31811L22.445 8.3181C24.6069 7.97286 25.7081 5.59181 24.4934 3.76845L18.899 2.69687ZM18.899 2.69687L19.2227 2.31573C19.4084 2.47345 19.5637 2.60716 19.6821 2.72202C19.795 2.83154 19.9142 2.96093 19.9895 3.11505C20.024 3.18579 20.0472 3.25713 20.06 3.32855M18.899 2.69687L20.06 3.32855M20.06 3.32855C20.0782 3.3107 20.0964 3.29311 20.1148 3.2758C20.4031 3.00348 20.7591 2.75221 21.1115 2.63173C21.3794 2.54015 21.7128 2.4967 22.0201 2.48831C22.3265 2.47995 22.661 2.50498 22.9303 2.58329L22.9303 2.58329C23.2237 2.66858 23.5333 2.85102 23.7945 3.05041C24.0583 3.25184 24.318 3.50521 24.4933 3.76838L20.06 3.32855ZM1.79167 6.13493L1.79169 6.13492C2.53559 5.3681 3.74913 5.01398 4.73266 5.3368C5.5688 5.61125 6.19293 6.15411 6.52592 6.86935L6.71964 6.78576L7.10376 6.62002C8.35583 6.07964 10.1044 5.8804 11.4212 6.13164L11.3275 6.62278L11.4212 6.13164C12.0476 6.25116 12.7492 6.50462 13.3694 6.807C13.9815 7.10542 14.5659 7.47652 14.9259 7.85637C15.989 8.97837 15.2937 10.8009 13.7043 10.8009C13.5014 10.8009 13.314 10.7807 13.0932 10.6886C12.8996 10.6079 12.6956 10.4774 12.4417 10.3053L12.4417 10.3053C11.2158 9.47453 9.99218 9.30057 8.73186 9.74011C7.09266 10.3119 6.05131 11.8116 6.05455 13.6654C6.05637 14.7012 6.39993 15.5234 7.28422 16.4651L7.28425 16.4651C7.54825 16.7463 7.73699 16.9567 7.86185 17.1453C8.00616 17.3632 8.06451 17.5495 8.09658 17.7639L8.09659 17.7639C8.14424 18.0828 8.08556 18.4125 7.9695 18.6949C7.85367 18.9767 7.66354 19.2527 7.40276 19.4422C7.19147 19.5958 6.90244 19.6763 6.66307 19.7137C6.41578 19.7524 6.12237 19.7605 5.87094 19.6973L5.87078 19.6972C5.76048 19.6694 5.66291 19.6149 5.59711 19.5744C5.52274 19.5286 5.44538 19.4728 5.36913 19.4133C5.2161 19.2938 5.0439 19.1406 4.87172 18.9745C4.52963 18.6446 4.15635 18.2335 3.90524 17.8818C2.61099 16.0691 2.19523 13.4845 2.85473 11.3544L2.85476 11.3543C2.85583 11.3508 2.85703 11.3469 2.85836 11.3425C2.87321 11.2937 2.90449 11.1909 2.95852 11.1005C2.99123 11.0458 3.02987 10.9976 3.07382 10.9559C2.72682 10.8513 2.38679 10.6771 2.06977 10.4257L2.38043 10.0339L2.06977 10.4257C0.757774 9.38537 0.625675 7.33693 1.79167 6.13493ZM12.7528 12.7096L12.7528 12.7096C12.8546 12.8838 12.9501 13.0536 12.9825 13.3189C13.0086 13.5333 12.992 13.8091 12.9677 14.2031L12.9677 14.2032C12.9252 14.8929 12.9963 15.4558 13.1801 15.9531C13.3635 16.4496 13.6697 16.9095 14.1377 17.379L13.7836 17.732L14.1377 17.379C15.7476 18.994 18.1438 18.9946 19.7587 17.3785L19.7587 17.3785C20.3857 16.7511 20.69 16.2127 20.8618 15.4678L20.8618 15.4678C20.9479 15.0949 21.0537 14.7754 21.2231 14.5124C21.4028 14.2334 21.6339 14.0482 21.9158 13.9113L21.9159 13.9112C22.0692 13.8368 22.2287 13.7684 22.4095 13.7433C22.5974 13.7172 22.7643 13.7437 22.9221 13.7794C23.4552 13.8995 23.8478 14.1467 24.1309 14.597C24.322 14.9008 24.3585 15.2964 24.3351 15.6662C24.3105 16.0539 24.2145 16.4971 24.0592 16.9613L24.0592 16.9613C23.6689 18.1268 23.1952 18.8586 22.2166 19.8438C21.8335 20.2295 21.5796 20.4771 21.3069 20.6786C21.0299 20.8832 20.7469 21.0304 20.3246 21.2389L20.3246 21.2389C19.8152 21.4903 19.1539 21.7675 18.8453 21.8456L18.7228 21.3608L18.8453 21.8456L18.3837 21.9623L18.2243 22.0026C18.2775 22.2815 18.2904 22.5754 18.2591 22.8794L17.7617 22.8283L18.2591 22.8794C18.0033 25.3656 14.9849 26.3894 13.2549 24.5903L13.6153 24.2437L13.2549 24.5903C12.2896 23.5864 12.1937 22.0787 12.9519 20.9496L12.7938 20.8306L12.5229 20.6267L12.5229 20.6266C11.5048 19.86 10.6866 18.842 10.1383 17.6644L10.1383 17.6644C9.88617 17.1229 9.72039 16.7001 9.62283 16.2231C9.52633 15.7513 9.50155 15.2502 9.49949 14.5598C9.49639 13.5258 9.50326 13.2195 9.71905 12.8047C10.1733 11.9312 11.1974 11.6039 12.0786 12.0396L11.857 12.4878L12.0786 12.0396C12.224 12.1115 12.3579 12.2269 12.4593 12.3304C12.5661 12.4395 12.6725 12.5721 12.7528 12.7096Z" stroke="#ED8C2B"/>
</svg>
